inDegrees=no
num_controls=7
num_derivatives=13
num_iterations=114
num_multipliers=7
num_parameters=0
num_slacks=7
num_states=26
objective=5.640445
objective_accelerations=0.261709
objective_balance=0.028709
objective_effort=0.365263
objective_height=4.875602
objective_ligament=0.109162
solver_duration=978.281898
status=Solve_Succeeded
success=true
DataType=double
version=3
OpenSimVersion=4.4-2022-07-23-0e9fedc
endheader
time	/jointset/ground_pelvis/pelvis_tilt/value	/jointset/ground_pelvis/pelvis_tx/value	/jointset/ground_pelvis/pelvis_ty/value	/jointset/hip_r/hip_flexion_r/value	/jointset/hip_r/hip_adduction_r/value	/jointset/hip_r/hip_rotation_r/value	/jointset/back/lumbar_extension/value	/jointset/patellofemoral_r/patellar_flexion_r/value	/jointset/knee_r/knee_flexion_r/value	/jointset/knee_r/knee_adduction_r/value	/jointset/knee_r/knee_rotation_r/value	/jointset/ankle_r/ankle_angle_r/value	/jointset/subtalar_r/subtalar_angle_r/value	/jointset/ground_pelvis/pelvis_tilt/speed	/jointset/ground_pelvis/pelvis_tx/speed	/jointset/ground_pelvis/pelvis_ty/speed	/jointset/hip_r/hip_flexion_r/speed	/jointset/hip_r/hip_adduction_r/speed	/jointset/hip_r/hip_rotation_r/speed	/jointset/back/lumbar_extension/speed	/jointset/patellofemoral_r/patellar_flexion_r/speed	/jointset/knee_r/knee_flexion_r/speed	/jointset/knee_r/knee_adduction_r/speed	/jointset/knee_r/knee_rotation_r/speed	/jointset/ankle_r/ankle_angle_r/speed	/jointset/subtalar_r/subtalar_angle_r/speed	/forceset/tau_hip_flexion_r	/forceset/tau_hip_adduction_r	/forceset/tau_hip_rotation_r	/forceset/tau_knee_flexion_r	/forceset/tau_ankle_angle_r	/forceset/tau_subtalar_angle_r	/forceset/tau_lumbar_extension	lambda_cid13_p0	lambda_cid14_p0	lambda_cid14_p1	lambda_cid14_p2	lambda_cid14_p3	lambda_cid14_p4	lambda_cid14_p5	/jointset/ground_pelvis/pelvis_tilt/accel	/jointset/ground_pelvis/pelvis_tx/accel	/jointset/ground_pelvis/pelvis_ty/accel	/jointset/hip_r/hip_flexion_r/accel	/jointset/hip_r/hip_adduction_r/accel	/jointset/hip_r/hip_rotation_r/accel	/jointset/back/lumbar_extension/accel	/jointset/patellofemoral_r/patellar_flexion_r/accel	/jointset/knee_r/knee_flexion_r/accel	/jointset/knee_r/knee_adduction_r/accel	/jointset/knee_r/knee_rotation_r/accel	/jointset/ankle_r/ankle_angle_r/accel	/jointset/subtalar_r/subtalar_angle_r/accel	gamma_cid13_p0	gamma_cid14_p0	gamma_cid14_p1	gamma_cid14_p2	gamma_cid14_p3	gamma_cid14_p4	gamma_cid14_p5
0.5	-0.02858895991189402	0.08121673709555485	0.891875231411951	0.5118879438972844	-0.2230090961620549	-0.1619620489483451	-0.3008281001688319	0.5729484570739344	0.5729484570738983	0.04252533348452029	0.1745307743760822	0.2589114823512896	0.06526773337292266	-0.06856800745768511	-0.02718714599131474	-0.2145954446926337	0.9145857317351188	-0.002825044542206645	0.1930129437825818	-0.6044561906349033	1.371564997660436	1.371564997660474	-0.2784601647584237	3.053665140668851e-05	0.6096306485508528	0.1775487729281404	-0.02743781331820922	-0.01482463797062909	0.00336742140938163	-0.3201990132802903	0.04541372902536629	-0.01604142825199902	0.1024684022066246	-37.78592859973959	-28.32243091075918	-7.806343936838226	-3.000947779182521	6.133123469631856	-677.5405734240749	56.23603732260511	-0.03880763482466882	0.1338659282400588	-0.2553879545107888	-0.5635447924326674	-0.1007707364236531	-0.47912010900166	1.012794207843624	-0.8587226542655848	-0.8587226542655934	0.3750000364439376	-0.001711738859356541	-0.3817296620566865	-0.08550918678948205	-7.606257271227533e-08	-8.91486040459807e-08	5.229172669107937e-07	-9.087364349648621e-07	-4.589300728797576e-09	-1.027299364753985e-07	8.749070477511934e-07
0.51	-0.02927676685299782	0.08095164071259482	0.8897169286400889	0.5210044831114079	-0.2230429697389467	-0.1600551924689396	-0.3068207887636577	0.5866191865536546	0.5866191865536377	0.03976126457872543	0.1745310290154924	0.2649877058587719	0.06703782407138682	-0.06898629332551053	-0.02582459204538127	-0.2170156821152572	0.9085852775261977	-0.003945179934072844	0.1883470277550933	-0.5939882676898989	1.362374354343423	1.36237435434343	-0.2743380344739573	2.445895976522786e-05	0.6055322219076181	0.1764465687780425	-0.03128821601095147	-0.0132651270061394	0.003955069418650383	-0.3225121258976055	0.04064585685025708	-0.01524595047718163	0.1062585245406475	-37.19056709278003	-29.92108428274303	-7.826562088112418	-2.899741051240168	6.7095349914947	-679.6610068057863	56.13866804424067	-0.04228365149879738	0.1385805253933126	-0.2279473578228492	-0.6388301250830321	-0.1170804040398451	-0.4621606653419089	1.077780433698932	-0.9802022433072866	-0.9802022433118461	0.4331615964441051	0.0004049028764370015	-0.4361811308484015	-0.1260256184801426	-6.905809940565378e-08	-8.505850849573707e-08	4.485366876759743e-07	-8.743792155751948e-07	2.669353127824246e-10	-9.494389824097339e-08	8.093705574979867e-07
0.52	-0.0299685455705196	0.08070039594861907	0.8875359023496638	0.5300569109054541	-0.2230879337624567	-0.1581953618129491	-0.3127060003098589	0.6001918161856455	0.6001918161856219	0.0370388853901726	0.174531315015398	0.2710204887067434	0.06879620281047813	-0.06936236274286622	-0.02441682219445633	-0.2191401484052422	0.9017634477188218	-0.005043133864828496	0.1836077790988327	-0.5829607809101134	1.351945028110887	1.351945028110865	-0.2701222213096577	3.680875584594965e-05	0.6009425166487232	0.1752063810535403	-0.03513861870369096	-0.01170561604159335	0.004542717427613379	-0.3248252385149104	0.03587798467516912	-0.01445047270227654	0.1100486468746588	-36.57198433263584	-31.52808451332273	-7.844676725133034	-2.802942288417146	7.280763923965957	-681.9209365028464	56.10444088663178	-0.03036434473079249	0.1429091092383664	-0.1962337279830807	-0.7278199121236225	-0.09633444420152834	-0.4937866347559746	1.124706974799782	-1.106459237369989	-1.106459237369917	0.3937366124105687	0.001973758684957028	-0.4799853851887249	-0.1131059016702918	-6.191732284107656e-08	-8.023260569347011e-08	3.748234065073837e-07	-8.307652360184051e-07	4.702697466146276e-09	-8.617949875343301e-08	7.37273761154248e-07
0.53	-0.03066388301208697	0.08046338524997033	0.8853351292730887	0.5390371825007455	-0.2231436950070326	-0.1563831096275013	-0.3184783505615139	0.6136540813988232	0.6136540813988083	0.03435906023835723	0.1745316611057083	0.2770049164051437	0.07054155249466298	-0.06969895960331216	-0.02298448187203784	-0.2209630805853053	0.8941672399343823	-0.00610482513652688	0.1788409808152881	-0.5714363575106465	1.340310309947849	1.340310309947838	-0.2658233548584383	3.265473362475432e-05	0.5958575167907356	0.1738374423137658	-0.03883950317947413	-0.01013963483959259	0.005156833823263435	-0.3271262656745396	0.03111461844899085	-0.0138204165214691	0.1136864202323927	-35.9328764015107	-33.14230361351531	-7.948312611898911	-2.678328055358431	7.934673139946787	-684.1099133297481	55.93117417472499	-0.03438952549340758	0.1435232497705691	-0.1676313295406262	-0.7940744637212422	-0.1105606694602863	-0.4684930463229978	1.177246808890445	-1.221622158730817	-1.221622158729204	0.4508718284187461	-0.001708784194614872	-0.5355872647064609	-0.1527477957587068	-5.430834388126071e-08	-6.730120877737991e-08	3.358429377267364e-07	-7.180599125975791e-07	3.889906556267378e-10	-6.599355381995352e-08	6.425386197300846e-07
